<svg id="Layer_2" data-name="Layer 2" xmlns="http://www.w3.org/2000/svg" viewBox="0 0 514.56 505.36"><defs><style>.cls-1{fill:#26bcd6;}.cls-2{fill:#49a942;}.cls-2,.cls-3{stroke:#595959;stroke-miterlimit:10;}.cls-3{fill:none;stroke-width:5px;}</style></defs><title>coverpic</title><ellipse class="cls-1" cx="257.28" cy="252.68" rx="254.78" ry="250.18"/><path class="cls-2" d="M395.33,306.33c-0.16,6.77-2.68,11-8,21.33-7,13.61-7.05,14.69-6.67,15,0.93,0.74,5.47-2,8-6.33,2.83-4.8,1.34-8.4,4-10s4.81,1.52,8.67.33c4.85-1.48,4.59-7.34,8.67-8,3.51-.57,5,3.56,9.67,3,2.53-.31,2.78-1.62,5.33-1.67,3,0,6.57,1.68,7,4s-2.94,3.83-2.33,6c0.53,1.92,3.79,3,6.33,2.67,2-.25,4.74-1.48,5-3.33s-2.46-2.56-3.33-6c-0.19-.74-0.85-3.33.67-5,1.35-1.49,3.63.32,5.33-1,1.44-1.12,1.83-3.8,1-5.67-1.6-3.6-7.4-3.43-7.33-4.67,0.05-1,4-2.58,7.33-1.33,2.91,1.08,2.94,3.33,7,8s6.64,5.35,6.33,7c-0.62,3.32-11.08,2.6-12,6.67-0.43,1.92,1.77,2.64,2,6.67,0.13,2.21-.49,2.84-0.33,5.67,0.11,2,.26,4.66,1.33,5,1.59,0.5,5.05-4.17,6.33-9,0.93-3.52-1.19-5.75.33-7.67,1-1.3,2.05-.69,4.33-2,3.67-2.11,5.2-6.1,5.67-7.33,1.16-3,.32-3.59,1.67-7,0.9-2.26,1.66-3,3-5.33,2.35-4.08,1.88-5.1,3.67-8.67a37.19,37.19,0,0,1,5.67-8c4.46-5.21,8.12-7.6,7.67-8.33-0.64-1.06-8.28,3.65-10,1.67-0.91-1.05.1-3.69,1.33-5.33,2.4-3.19,5.25-2.1,8-5.33,1.2-1.4.35-1.25,2.67-5.33,1.83-3.24,2.87-4.22,3-6.33,0.1-1.57-.3-3.7-1.33-4s-1.58,1.52-4,3c-2.91,1.78-4.28.49-7.33,2.33a30.91,30.91,0,0,0-3.67,3.33c-3.1,3-3.28,3.51-4.33,4.33-2.29,1.79-3.23.73-8.33,2.33a54.89,54.89,0,0,0-7.33,3c-3.75,1.81-4.79,2.77-5.33,2.33-1-.79.56-5.45,3.67-9,3.47-4,6-3.25,10-7.33,1.78-1.82,1.47-2.16,5-7.67,4.1-6.41,6.16-9.61,8.67-11.67,1.93-1.58,7.39-6.06,14-4.67a14.12,14.12,0,0,1,8.33,5.67c3.88,5.58,2.17,12.05,2,12.67-1.76,6.27-6.6,7-8,13.33-0.73,3.28-.92,7.18.33,7.67,2.26,0.89,7.27-10,11.33-9,1.73,0.44,1.61,2.61,3.33,3,2.61,0.59,5-3.94,10.33-10,3.65-4.12,3.48-3.07,10.67-10.33,5.47-5.52,7.84-6.54,9.67-10.33,1.56-3.23,1.13-4.54,2.67-5.67,3.1-2.27,7.75.95,15.33,3.33,8,2.53,21.07,4.65,23.67.33,1.48-2.46-.78-6.43-1.67-8-3.62-6.37-8.91-5.39-11.33-11-1.36-3.15,0-4.18-1.67-9-1.39-4.07-2-6.67-4-7.33s-2.91,1-10.67,4.33c-2.62,1.13-4.38,1.76-6,1a4,4,0,0,1-2.33-3c-0.12-4,11.16-7.45,18.33-9.67a138.76,138.76,0,0,1,17-4c17.82-3.21,26-2.69,28.67-8,0.22-.43,1.51-2.79.67-5-0.4-1.06-1.93-3.76-10.33-4.67C577.24,171.06,542.1,183.26,540,184c-12.1,4.27-18.49,6.52-27.67,10.67a264.09,264.09,0,0,0-36.33,20A257.49,257.49,0,0,0,438,245c-20.31,19.86-13.25,20-28.67,33.67-4.66,4.13-9.71,13.43-14.33,22.33C393.91,303.1,395.4,303.35,395.33,306.33Z" transform="translate(-358.61 -168.14)"/><path class="cls-2" d="M545.33,260.33c-1.43,2.65-4.48,8.32-8,12.33-1.64,1.87-2.94,2.88-16,10.33-11.27,6.43-13.09,7.27-15.33,10.33-1.08,1.47-5.28,7.57-3.67,14.33,0.15,0.62,1.38,5.79,4.33,6.33,2.46,0.45,3.9-2.73,8.33-6.33,5.24-4.27,10.6-5.82,14.67-7a51.87,51.87,0,0,1,14.67-2c7.85,0.14,11.22,2.16,14.33-.33,2.55-2,2.13-4.85,5-6s4.6,1.13,6.67,0c2.92-1.6.84-6.92,3.67-11.33,2.35-3.66,5.76-1.53,9.67-5.33,3.39-3.3,1.8-5.41,5-9.33,4.4-5.4,9.21-3.63,11.67-8,2.28-4.06,1-10.75-2.67-13.67-3.28-2.59-6.21-.43-17.33-0.67-10-.21-9.77-2-15-1-0.83.16-11,2.24-16.67,10.67C547.28,255.72,547.91,255.55,545.33,260.33Z" transform="translate(-358.61 -168.14)"/><path class="cls-2" d="M364,405.67c0.59,0,1,2.88,3.67,18,5.51,30.83,4.67,22.87,6.67,35.33,1.54,9.65,1.89,13.49,4.33,19.67,1.88,4.74,6.72,7.55,8,14.33,0.49,2.59.15,3.36,0.33,6.67,0.41,7.21,2.55,12.55,4.33,17,6.48,16.15,18.67,29.67,18.67,29.67,12.78,14.17,21.9,16.83,23.67,28,0.29,1.82,1.92,6.19-.33,9a6.08,6.08,0,0,1-3.33,2c-5.22,1.2-11.1-5.11-13.67-8-14.52-16.39-25.19-39-25.67-40-7.83-16.79-11.74-25.19-14.33-32.33-3.95-10.87-10.83-30.19-13.33-56C360.87,427.06,362.41,405.74,364,405.67Z" transform="translate(-358.61 -168.14)"/><path class="cls-2" d="M560,312.25c2.36,1.89,4.34.77,8.25,2,1.63,0.51,4.92,1.55,5.25,3.5,0.43,2.49-4.18,5-5,5.5a17.36,17.36,0,0,1-12,1.5c-1.1-.23-6.95-1.44-7.25-4-0.19-1.58,1.94-2,2.75-5,0.74-2.72-.59-4.05.5-5.25s3.63-1,5.25-.25C558.93,310.83,558.93,311.39,560,312.25Z" transform="translate(-358.61 -168.14)"/><path class="cls-2" d="M578.25,356.25c0.87-.22,4.59-1.14,5-0.25,0.29,0.65-1.27,2-2.25,2.75,0.15,0,2.83,0,4,2a4.52,4.52,0,0,1,.25,3.5c-0.53,1.82-1.64,1.91-2,3.25-0.48,1.79,1.09,3.19,2.5,5.75A16.17,16.17,0,0,1,588,380.5c0.09,1.4-.05,2.49.75,3.25s1.85,0.3,3,1.25a3.25,3.25,0,0,1,1.25,2.75c-0.15,1-.89,1-1.75,2.5-0.68,1.21-.43,1.61-1,2.5a5.38,5.38,0,0,1-2.75,2c-0.65.25-1.91,0.64-7.25,0-3.11-.37-3.5-0.6-4.5-0.25-1.6.56-2,1.61-3.5,1.75-1.32.12-2.9-.5-3-1.25-0.16-1.17,3.23-2.78,5.75-3.5,2-.58,3.75-0.65,3.75-1s-2.67-.2-4.25-2c-0.2-.23-2.3-2.46-1-2.5,0.64,0,3.17-.89,1.8-4.82-0.44-1.26,4.63,1.12,4.76-.62,0.1-1.25,0-2.75.15-4,0.1-.93-0.09-2.79-1-3.1l-1.44.23a1.37,1.37,0,0,1-1.57-1.13,1.87,1.87,0,0,1,.14-1.48c1.27-1.13,3.14-1.74.38-2.87-1.11-.46-2.22.38-2.75-0.25s0.31-2.43.75-3.25a15.9,15.9,0,0,1,2-2.75A8.77,8.77,0,0,0,578.25,356.25Z" transform="translate(-358.61 -168.14)"/><path class="cls-2" d="M563.5,372.25a7.22,7.22,0,0,1,3.5-1.75c1-.23,3.93-0.87,5.5.75,1.4,1.45.92,3.88,0.5,6a8.6,8.6,0,0,1-1.75,4.25c-1.07,1.27-2.38,1.76-5,2.75A21.05,21.05,0,0,1,561,385.5c-1.81.19-2.73,0.28-3.25-.25-1.33-1.33.55-5.11,0.75-5.5,0.94-1.88,1.46-1.63,3-4.25C562.58,373.67,562.57,373.13,563.5,372.25Z" transform="translate(-358.61 -168.14)"/><path class="cls-2" d="M867,375c-0.33-4.49-1.22-7.51-4.33-17.33-3.17-10-4.75-15-5.33-16.67a301,301,0,0,0-14-33.33A246.35,246.35,0,0,0,806,254a250.66,250.66,0,0,0-50.33-41.67A259.07,259.07,0,0,0,703,187a262,262,0,0,0-63.67-13.67c-1.16,2.44-3,5.45-5.67,5.67-1.85.15-2.67-1.21-5.33-2-4.23-1.27-9.18.07-9.33,1.33-0.2,1.67,7.88,3.94,14,5.67,9,2.54,10.71,1.72,18.67,4,8.9,2.55,13.35,3.82,16,7.67,3.29,4.78,1.91,9.94,5.33,11.33,2.6,1.06,4.19-1.59,7.67-.67,3.88,1,5.95,5.43,7,7.67a35.45,35.45,0,0,1,2.64,9.75,0.87,0.87,0,0,1,0,.25c-0.08,1.14-3.23,1.69-5.67,2.33-3.49.93-5.23,1.44-7,2.67-0.59.41-3.78,2.63-3.33,4.33,0.51,1.93,5,.54,7.67,3.33,2.87,3-.06,7,3,10.67,2,2.42,4,1.41,5.67,4,2,3,.93,7,0.67,8-1,3.74-2.8,3.82-3,6-0.52,5.56,11,8.74,10.33,13-0.43,2.68-5.42,4.2-8.67,4.33-6.5.28-10.81-4.77-11-5-3.07-3.71-1.5-6.1-5-14-1.48-3.35-4-8-5-7.67-0.56.18-.41,1.88,0,7,0.9,11.13.84,11,1,11.67,0.72,2.83,2.63,10.15,8,12.33,4,1.64,7.52-.66,8.67,1,1,1.49-1,4.44-3.67,8.33-2.28,3.34-3.44,5.05-5.67,6.33-2,1.16-4.31,1.63-9.33,1.33-7.09-.41-9.24-1.73-17-3-7.17-1.18-10.83-1.74-14.33-.33-4.22,1.69-6.43,5-9,9-7.72,12-4.17,18.34-11,24.67-4.55,4.21-7.67,2.8-10.33,7.33-2.38,4.05-3.22,10.83.67,15a10.5,10.5,0,0,0,8.33,3.33c3.36-.35,4.88-2.7,6.33-2,2.38,1.14,2.91,7.23,1,8.33-1.26.73-2.53-1.37-5.33-1.33-3.67,0-7.75,3.75-7.67,7s4.47,4.45,4,6.67S608.26,380,604,384c-2.48,2.31-1.58,3.36-4.33,6.67-2.59,3.12-5.36,4.57-10,7s-7.41,3.88-11.33,4.33c-4.84.56-7.32-.8-8.33,0.67-1.23,1.79,1,5.88,3.33,8.33,3.13,3.35,5.39,2.67,6.67,5.33,1.56,3.26-.37,7.32-1.33,9.33-0.71,1.5-1.89,4-4,5.33-3.33,2.16-6.74-1.76-17-4.33-6.14-1.54-7.39-.89-8-0.33-2.05,1.89.67,5.16-.67,10.67s-4.9,5.73-5.33,10.67c-0.26,3,.69,6.89,3.33,9,2.18,1.74,3.51.67,7.33,2.67,3.61,1.89,3.31,3.31,6,4.33,4.42,1.68,9.11-.71,10.33-1.33a19.5,19.5,0,0,0,7.67-7.67c2.13-3.46,1.53-4.46,3.67-7s3.53-2.67,6.67-5c4.92-3.66,3.81-5,7-7,4.32-2.7,6.21-.41,13.67-2.67,5.73-1.73,8.23-4.18,9.67-3s-0.34,4.07,0,7c0.68,5.9,11.28,4.56,19,13,1.82,2,2.67,3.56,2.33,5-0.6,2.54-4.7,3.75-6.67,4.33-4.4,1.3-6.65.41-7,1.33-0.71,1.87,7.41,8.34,11,6.33,1.69-.95,1.2-3.13,3-7,1.92-4.15,5.4-4.41,5.67-7.33,0.08-.91-0.11-1.85-1.33-4A37.93,37.93,0,0,0,634.33,437c-4.23-2.91-5.7-2.8-7.33-5.33-1.88-2.92-2.56-7.18-1-8.33,1.29-1,3.78.46,8.67,3.33A95.21,95.21,0,0,1,645.33,434c7.6,5.93,9,5.93,9.67,8,1.41,4.32-2,7.56,0,10,1.74,2.1,4.79.3,7.33,2.67s1.22,6.33,3,7c2.05,0.78,6.87-3.22,6.67-7s-5.23-4.44-5.67-8.67a7.45,7.45,0,0,1,4-7,7.86,7.86,0,0,1,8.67,1.33c1.7,1.6,1.24,2.93,3,7.33,1.64,4.1,2.55,6.4,4.67,8,3.2,2.43,7.4,1.92,12.33,1.33a31.33,31.33,0,0,0,9-2.33c6.54-2.81,7.72-6,9.67-5.33,3.38,1.17,3,11.89,1.33,19.33-1.15,5.17-1.89,8.46-4.67,11.33-6,6.17-16.31,5.18-21.67,4.67-10.88-1-14.7-5.2-23.33-3.33-2.37.51-5.65,1.27-8,4-2.55,3-1.75,5.61-4,7-1.76,1.08-3.71.37-10.33-2-9.21-3.3-13.82-4.95-14-5-7.1-2-9.83-1.49-11.33-4-1.28-2.14.2-3.33-.67-7.67-0.2-1-1.37-6.84-5.33-9-2.47-1.35-4.43-.39-9.33.33-10.37,1.54-10.63-1.4-19.33.33A116.6,116.6,0,0,0,574,469c-3.41,1.16-4.37,1.66-6.33,1.67-5.42,0-6.64-3.69-10.67-3.33-3.51.31-3.33,3.19-9.67,7-5.1,3.06-6.59,2-9,4.67-3.1,3.4-1.38,6-4,9.67S529,491.55,521,495.33c-5.56,2.61-9.94,4.67-13.67,9A28.11,28.11,0,0,0,501,518.67c-0.82,6.9,2,8.19.67,14.33S497,540.12,496,545s1.38,9.54,7.33,18c12.21,17.34,18.32,26,26.67,30,7.06,3.38,13.15,3.81,25.33,4.67,14.4,1,19.43-4.75,29.33-1,7,2.64,7.2,6,14.33,7.33,9,1.7,14.8-2.4,17.33.67,2.08,2.52-1.49,5.72-.33,12.67,0.78,4.66,3.16,7.85,6,11.67,5.27,7.06,8.53,7.22,11,12.33,1.91,4,0,4.73,1.33,13,1.13,7.13,1.85,11.71,5.33,14.33,2.74,2.07,6.27,1.82,13.33,1.33,4.74-.33,8-1,17.33-3,12.85-2.71,12.09-2.53,12.67-2.67,21.09-5.06,24.59-9.47,35.33-12a11.75,11.75,0,0,0,5-2.33c3-2.44,3.61-5.74,4.33-7.67,2.28-6.08,7.31-4,14-11,2-2.11,5.1-5.38,6.33-10.33,1.13-4.57-.09-7.42-0.33-10.67-0.5-6.69,3.41-11.69,13-23.33,19.33-23.47,19.15-22.25,21.67-26.67,3.1-5.44,5.4-12.41,10-26.33,1.11-3.36,2.47-7.67,1.33-8.33-1-.57-3.26,1.87-7.33,6-13.44,13.63-16,15-18.67,15-2,0-4.47-1.77-9.33-5.33-6.52-4.78-11.39-8.35-15.33-14.67-3.42-5.48-3.37-8.58-8-13-0.82-.78-2.44-2-5.67-4.33-8.82-6.46-10.56-7-11.67-9.67-1.41-3.39-1-8.32,1.33-9.67,4.34-2.5,14.46,7.74,16,9.33,4.06,4.19,3.67,5.33,10.33,13,0.47,0.54.09,0.1,7.33,8,8.31,9.06,8.78,9.62,9.67,11,2.82,4.39,3.22,6.87,5,7,2,0.14,3-2.92,6-6.67,5.41-6.81,8.82-5.17,14.33-11.33,3.4-3.8,1.92-4.21,7.67-13.67,4.37-7.18,5-6.57,8.33-12.33,5.8-10,6.74-16.73,7-19.33,0.13-1.3,1-9.81-2-11-1.83-.74-3.37,2-6.67,1.67-3.7-.38-4.8-4.12-6.67-3.67-2.74.67-.56,8.8-5.33,13-3.65,3.21-9,2.07-9.33,2-3.66-.83-5.77-3.78-10-9.67-3.22-4.49-4.81-6.77-4-8.67,1.08-2.51,5.63-3.79,8.33-2.33,2.54,1.36,1.64,4.16,4.33,6a8.66,8.66,0,0,0,9.33-.33c3.39-2.51,2.41-6.9,5-7.67,2.12-.63,3.33,2.15,6.67,2.67,4,0.62,7.59-2.56,10.33-5,6.92-6.15,5.52-10.21,11-13,3.16-1.61,8.19-2.58,11-.33,1.91,1.53,2,3.89,3.33,4,2.12,0.18,3.15-5.38,5-5.33,2.14,0,2.65,7.54,6.67,17,1.85,4.35,5.23,12.33,8.33,12,2.82-.3,4.77-7.43,5-13,0.32-7.62-2.68-10-3.67-19-0.56-5.15.4-4.55,0.67-14.67A202.27,202.27,0,0,0,857,395c-1.08-11.43-2.5-17.48-1-18s4.57,4.16,6,6.67c2.12,3.72,2.29,6,3,6C866.23,389.6,867.56,382.51,867,375ZM665.25,347.25c-0.24,1.59-3.11,2.45-6.75,3.5-4.41,1.27-6.59,1.2-7,2.5-0.16.5,0.39,1.51,1.5,3.5,1.58,2.85,2.07,3.27,2.25,4.5,0.24,1.65-.23,3.59-1,3.75-1.06.22-1.82-3.12-3.75-3.25-1.18-.08-2.44,1.06-3,2.25-1.32,2.8,1.72,5,.75,8.75a6.86,6.86,0,0,1-2.5,3.75c-1.6,1.13-2.62.54-5.75,1-5,.73-5.53,2.68-9.5,2.5-1.78-.08-1.87-0.48-4-0.5-3.33,0-4.3.94-5.5,0.25-1.7-1-2.31-4.44-1-6.75,1.58-2.78,5.45-3,6-3,3-.15,4.37,1.44,6.25.5a5.32,5.32,0,0,0,2.25-3c1.44-3.3.18-5.16,1.25-8,1-2.58,2.81-2,3.5-4.25a6.78,6.78,0,0,0-2-6.75c-1.52-1.29-2.53-.62-3.5-1.75-1.67-2-.58-6.2,1.25-9s3.7-2.84,5.25-5.75a11.36,11.36,0,0,0,1.25-5.5,4,4,0,0,1,3.5-4.25,3.9,3.9,0,0,1,3.75,3.25c0.25,1.73-1.24,2.61-2.75,5.25a19.84,19.84,0,0,0-2.25,8.25c0,0.92-.28,7.87,3.5,9.75,1.63,0.81,3.33.34,5.5-.25,5.84-1.6,7.62-5.15,10.25-4.25A3.24,3.24,0,0,1,665.25,347.25Zm58.08,77.42c-5.23,2.92-8.75-.76-16.33,1.67-2.83.91-2.08,1.34-8,4.33-8,4-11.93,6-15,4.67-4.83-2.16-5-10.69-5-11.67-0.14-7.73,4.55-16.12,8.67-16s5,8.29,9.67,8.33c2.89,0,6-3.08,6-5.67,0-2.1-2.1-2.55-2.33-4.67-0.44-4.08,6.62-8.86,8.33-7.67,1.22,0.85-1.24,4,.33,7.67,0.46,1.07,1.44,2.57,6,5,8,4.26,12.17,3.5,13,6S726.56,422.87,723.33,424.67Zm48-4.67c-1.79,4.88-8.93,7.65-12.67,5.67-3.26-1.74-2-6.11-5.67-12-2.44-3.94-5-3.22-9-8.33-1.36-1.75-1.58-2.4-3.67-5-3-3.78-3.79-4-4-5.33-0.17-1.09.13-2.11,4.67-8.33,3.62-5,4.21-5.39,4.67-5.67,4.44-2.71,10.78-1.12,11,.33s-5.79,1.8-8,6.67c-0.28.63-1.46,3.43-.33,6,1.39,3.17,4.87,2.75,10.33,6a29.83,29.83,0,0,1,8.67,8C769.87,411.57,772.87,415.8,771.33,420Z" transform="translate(-358.61 -168.14)"/><ellipse class="cls-3" cx="257.28" cy="252.68" rx="254.78" ry="250.18"/></svg>